<svg width="72" height="72" viewBox="0 0 72 72" fill="none" xmlns="http://www.w3.org/2000/svg">
<g clip-path="url(#clip0_8_74)">
<path d="M47.7627 41.8606C49.0331 39.2205 49.5909 36.2941 49.3808 33.3718C49.1674 30.3435 48.0145 27.4572 46.0826 25.1154C44.1506 22.7736 41.5361 21.093 38.6036 20.3079C35.7386 19.4226 32.6737 19.4191 29.8068 20.2978C26.9398 21.1765 24.4033 22.8968 22.5264 25.2354C21.8128 26.1449 21.2319 27.1511 20.801 28.2239C20.3507 29.3383 20.1621 30.5412 20.2496 31.7399C20.437 33.8029 21.7959 35.1388 21.9421 36.7519C21.9999 37.375 21.8277 37.9976 21.4578 38.5023C21.4142 38.566 21.3836 38.6377 21.3678 38.7133C21.352 38.7889 21.3513 38.8669 21.3657 38.9427C21.3801 39.0186 21.4094 39.0909 21.4519 39.1554C21.4943 39.2199 21.5491 39.2754 21.613 39.3187L22.1393 39.6225C23.2704 40.7712 24.4761 41.8441 25.7485 42.834C26.2974 43.2509 26.872 43.6329 27.469 43.9777L29.2546 45.0086C30.6267 45.8008 32.1319 46.319 33.6313 46.934C33.7092 46.9758 33.7946 47.0018 33.8826 47.0105C33.9706 47.0193 34.0594 47.0106 34.144 46.9849C34.2287 46.9593 34.3074 46.9173 34.3758 46.8612C34.4441 46.8051 34.5007 46.7361 34.5424 46.6581C34.5852 46.5786 34.6115 46.4912 34.6198 46.4013C34.6281 46.3113 34.6182 46.2206 34.5907 46.1346C34.5632 46.0486 34.5187 45.9689 34.4598 45.9005C34.4008 45.832 34.3287 45.7761 34.2477 45.7362L30.318 43.1666L28.5888 42.1683L26.8596 41.1699L22.7997 38.8259L22.6869 38.7608C23.0483 38.1366 23.2103 37.4169 23.1511 36.6981C23.0207 35.1442 21.7537 33.736 21.6227 31.7057C21.6094 30.7352 21.8133 29.774 22.2194 28.8925C22.6114 27.9448 23.1395 27.0593 23.7871 26.264C25.4969 24.2721 27.7628 22.8365 30.2941 22.1413C32.8254 21.446 35.5067 21.5229 37.9941 22.3619C40.4859 23.0531 42.7021 24.5001 44.3372 26.5034C45.9723 28.5067 46.946 30.9677 47.1241 33.5475C47.3098 36.0604 46.8404 38.5785 45.7617 40.8556C45.2754 41.9657 44.5581 42.9593 43.6577 43.7705C42.7573 44.5816 41.6944 45.1915 40.5397 45.5596C40.0888 45.679 39.6319 45.7749 39.1709 45.8469C37.9453 46.0164 36.7956 46.0544 35.5671 46.2724C35.086 46.3994 34.6438 46.6434 34.2798 46.9827C33.7472 47.4985 33.2467 48.0465 32.7812 48.6235C32.5129 49.0454 32.128 49.3803 31.6731 49.5877C29.9273 49.9151 28.1224 49.5633 26.6273 48.6042C24.317 47.1737 22.2887 45.3316 20.6429 43.1693C20.9857 42.9662 21.3483 41.9476 21.6738 41.3837C21.7543 41.2219 21.7686 41.0351 21.7136 40.8629C21.6585 40.6908 21.5386 40.5468 21.3791 40.4617C21.2998 40.4223 21.2135 40.3989 21.1251 40.3929C21.0367 40.387 20.948 40.3985 20.8641 40.4269C20.7801 40.4553 20.7027 40.5 20.6361 40.5584C20.5695 40.6168 20.515 40.6878 20.4759 40.7673C20.0419 41.5191 19.3569 42.4017 19.2497 42.8912C19.2014 43.0338 19.1884 43.1859 19.2116 43.3346C19.2349 43.4833 19.2937 43.6241 19.3832 43.7452C21.1522 46.2509 23.3874 48.3923 25.9667 50.0523C27.8058 51.2823 30.05 51.7516 32.2279 51.3616C32.698 51.243 33.1322 51.0122 33.4934 50.6888C34.0452 50.1882 34.5587 49.6469 35.0297 49.0697C35.2121 48.733 35.4729 48.4452 35.7899 48.2304C37.0293 47.9937 38.1276 48.0013 39.3561 47.7833C39.9124 47.7208 40.4623 47.6106 40.9997 47.4541C42.4625 47.0619 43.8236 46.3593 44.9906 45.3942C46.1576 44.429 47.1031 43.2238 47.7627 41.8606Z" fill="black"/>
<path d="M29.0649 36.8294C29.8071 35.8044 30.5226 34.7388 31.2459 33.703C31.3645 34.1756 31.5501 34.6288 31.7972 35.0487C32.1783 35.7751 32.7695 36.3696 33.4936 36.7549C34.1645 37.1177 34.9144 37.3096 35.6771 37.3138L34.7764 38.8739C34.0632 40.0914 33.4593 41.3697 32.9719 42.6939C32.744 43.0886 33.5427 43.8755 34.0996 43.345C34.6856 42.0663 35.3905 40.8455 36.2049 39.6986C37.4201 38.1981 38.7331 36.7795 40.1353 35.452C40.2997 35.3052 40.4082 35.1061 40.4426 34.8884C40.4769 34.6707 40.4349 34.4478 40.3236 34.2575C40.2284 34.0299 40.0506 33.8467 39.8258 33.7448C39.601 33.6429 39.346 33.6299 39.112 33.7084C38.9837 33.7567 38.8622 33.8213 38.7504 33.9006L38.3049 34.1947L37.4306 34.6673C36.9727 34.8747 36.4755 34.9808 35.9728 34.9785C35.5112 34.9998 35.0529 34.8915 34.6497 34.6657C34.2191 34.4124 33.889 34.0182 33.7152 33.5497C33.4782 33.0182 33.3666 32.4393 33.3889 31.8577L33.5389 30.8166C33.6366 30.6474 33.7438 30.1579 33.7713 30.0234C33.7511 29.8562 33.6923 29.6959 33.5995 29.5553C33.5067 29.4147 33.3824 29.2977 33.2365 29.2135C33.1089 29.0881 32.95 28.9994 32.7764 28.9564C32.6028 28.9135 32.4209 28.918 32.2496 28.9695C31.2792 29.2613 29.6655 33.1414 26.9824 37.1809C26.7942 37.6135 26.5576 38.0233 26.2771 38.4026C25.8213 39.192 26.5745 39.9276 27.2587 39.22C27.9461 38.4914 28.5518 37.6898 29.0649 36.8294Z" fill="black"/>
<path d="M25.1081 14.9472C25.0368 14.533 24.9278 14.1261 24.7824 13.7317L24.2868 12.5934C23.8518 11.7408 23.3249 10.9605 22.8306 10.1238C22.7546 9.96007 22.6178 9.83242 22.4492 9.76785C22.2807 9.70329 22.0936 9.70687 21.9276 9.77786C21.7667 9.85154 21.6413 9.98567 21.5786 10.1512C21.5159 10.3167 21.5209 10.5002 21.5926 10.662C21.8201 11.5703 22.0287 12.4676 22.2858 13.3679C22.3891 13.7533 22.4924 14.1387 22.6174 14.4866C22.7423 14.8344 22.8753 15.2119 23.019 15.5706C23.4143 16.3895 23.7664 17.2285 24.0739 18.0842C24.1146 18.2332 24.2124 18.3601 24.3462 18.4373C24.4799 18.5145 24.6388 18.5358 24.7881 18.4966C24.8676 18.4883 24.9446 18.4638 25.0143 18.4246C25.084 18.3855 25.1449 18.3325 25.1933 18.2689C25.2418 18.2053 25.2767 18.1325 25.296 18.0549C25.3152 17.9774 25.3184 17.8967 25.3053 17.8178C25.3499 16.8565 25.2837 15.8934 25.1081 14.9472Z" fill="black"/>
<path d="M37.4288 10.8834C37.3224 11.2842 37.2459 11.6924 37.2 12.1046C37.147 12.5 37.0941 12.8955 37.0788 13.3127C37.0503 14.2736 37.1404 15.2028 37.1198 16.1934C37.1166 16.3387 37.1655 16.4803 37.2578 16.5926C37.35 16.7049 37.4795 16.7804 37.6226 16.8055C37.7658 16.8305 37.9131 16.8035 38.038 16.7292C38.1629 16.6549 38.2571 16.5383 38.3034 16.4005C38.6678 15.488 38.9802 14.5556 39.2392 13.6077C39.3405 13.2151 39.4043 12.8008 39.4681 12.3865C39.5482 11.9952 39.6013 11.5987 39.6268 11.2001C39.5722 10.1661 39.5117 9.229 39.5027 8.24638C39.5212 8.15638 39.5211 8.06353 39.5024 7.97356C39.4837 7.88359 39.4468 7.7984 39.3939 7.72326C39.341 7.64811 39.2733 7.58459 39.1949 7.53662C39.1166 7.48865 39.0292 7.45724 38.9382 7.44433C38.7633 7.4212 38.5863 7.4677 38.4453 7.57383C38.3044 7.67995 38.2107 7.83719 38.1846 8.01169C37.9001 9.02531 37.6215 9.94205 37.4288 10.8834Z" fill="black"/>
<path d="M48.6152 23.9329C48.6774 23.9793 48.7482 24.0128 48.8234 24.0316C48.8987 24.0504 48.9769 24.054 49.0536 24.0423C49.1303 24.0307 49.2039 24.0039 49.2701 23.9635C49.3364 23.9232 49.394 23.8701 49.4395 23.8074C50.1001 23.2772 50.7342 22.7149 51.3395 22.1225C51.6722 21.7633 51.9594 21.3527 52.2545 20.9717C52.6362 20.3505 53.0683 19.7618 53.5465 19.2115C53.6278 19.1647 53.6991 19.1023 53.7564 19.0279C53.8136 18.9535 53.8556 18.8686 53.88 18.7779C53.9044 18.6873 53.9107 18.5928 53.8986 18.4997C53.8864 18.4066 53.8561 18.3168 53.8093 18.2355C53.7624 18.1542 53.7 18.0828 53.6256 18.0256C53.5512 17.9684 53.4663 17.9264 53.3757 17.902C53.285 17.8776 53.1905 17.8713 53.0974 17.8834C53.0043 17.8955 52.9146 17.9259 52.8332 17.9727C52.0976 18.3246 51.4106 18.7704 50.7895 19.2989C50.5332 19.5287 50.2912 19.7739 50.0647 20.0332C49.8763 20.3167 49.706 20.6118 49.5547 20.9166C49.1423 21.6309 48.9237 22.3568 48.6112 23.0284C48.5508 23.0873 48.5029 23.1578 48.4703 23.2357C48.4377 23.3135 48.4211 23.3971 48.4215 23.4815C48.4219 23.5659 48.4392 23.6493 48.4725 23.7269C48.5058 23.8044 48.5543 23.8745 48.6152 23.9329Z" fill="black"/>
<path d="M61.3613 39.1861C60.4779 38.676 59.7268 38.067 58.8622 37.5678L57.7533 36.9275C57.3962 36.7214 56.9443 36.6359 56.5329 36.5237C55.5307 36.3212 54.512 36.2112 53.4897 36.1952C53.4066 36.1623 53.3173 36.1481 53.2281 36.1537C53.1389 36.1592 53.0521 36.1844 52.9737 36.2274C52.8954 36.2704 52.8275 36.3301 52.7748 36.4023C52.7222 36.4745 52.6862 36.5575 52.6693 36.6452C52.6524 36.733 52.655 36.8234 52.677 36.91C52.699 36.9966 52.7399 37.0772 52.7967 37.1463C52.8534 37.2153 52.9247 37.2709 53.0055 37.3092C53.0862 37.3475 53.1744 37.3676 53.2637 37.3679C54.1855 37.7246 54.9749 38.1804 55.8157 38.5907L56.8958 39.0639L58.0381 39.4728C58.944 39.7702 59.8528 40.0192 60.7962 40.3384C60.9615 40.4088 61.1472 40.4146 61.3165 40.3545C61.4858 40.2944 61.6264 40.1729 61.7103 40.0141C61.7644 39.8573 61.7587 39.6861 61.6943 39.5333C61.6299 39.3804 61.5113 39.2568 61.3613 39.1861Z" fill="black"/>
<path d="M27.4854 53.5856C26.8369 53.2635 26.2091 52.901 25.6058 52.5005C25.0044 52.1532 24.4572 51.712 23.8022 51.2837L21.9769 50.1046C20.7364 49.3883 19.5146 48.683 18.2937 47.8026C18.1755 47.6968 18.0206 47.6414 17.8622 47.6483C17.7037 47.6551 17.5542 47.7237 17.4455 47.8392C17.3397 47.9574 17.2844 48.1123 17.2912 48.2708C17.298 48.4292 17.3666 48.5788 17.4821 48.6874C18.2938 49.7148 19.1929 50.67 20.1695 51.5421C20.6033 51.9089 21.0644 52.2421 21.5488 52.5389C22.0151 52.8582 22.5052 53.1412 23.0149 53.3854C24.2848 53.9865 25.6062 54.4726 26.963 54.8378C27.1321 54.8986 27.3182 54.8915 27.4822 54.8179C27.6462 54.7443 27.7753 54.61 27.8423 54.4433C27.9045 54.2819 27.9021 54.1027 27.8356 53.943C27.7692 53.7833 27.6437 53.6553 27.4854 53.5856Z" fill="black"/>
<path d="M23.2634 56.2103C22.6447 55.8286 22.0496 55.4097 21.4815 54.956C21.0847 54.6895 20.6702 54.4502 20.241 54.2398C19.4891 53.8057 18.6852 53.5922 17.9087 53.2441C17.8465 53.1978 17.7758 53.1642 17.7005 53.1455C17.6253 53.1267 17.547 53.123 17.4703 53.1347C17.3937 53.1464 17.3201 53.1732 17.2538 53.2135C17.1876 53.2538 17.13 53.3069 17.0844 53.3697C16.9984 53.5037 16.9644 53.6646 16.989 53.822C17.0136 53.9794 17.0951 54.1223 17.2179 54.2236C17.7113 54.8317 18.2381 55.4119 18.7958 55.9616C19.0465 56.1729 19.311 56.3674 19.5873 56.5439C19.8641 56.7294 20.1529 56.8962 20.4519 57.0431C21.2427 57.3165 22.067 57.4805 22.9022 57.5305C23.0729 57.5859 23.2587 57.5712 23.4186 57.4896C23.5785 57.408 23.6994 57.2663 23.7548 57.0955C23.8102 56.9248 23.7955 56.739 23.7139 56.5791C23.6323 56.4192 23.4905 56.2983 23.3198 56.2429L23.2634 56.2103Z" fill="black"/>
</g>
<defs>
<clipPath id="clip0_8_74">
<rect width="52.0884" height="52.0884" fill="white" transform="translate(26.0442) rotate(30)"/>
</clipPath>
</defs>
</svg>
