<svg  viewBox="0 0 233 50" fill="none" xmlns="http://www.w3.org/2000/svg">
<path fill-rule="evenodd" clip-rule="evenodd" d="M98.8412 39.2032C87.9077 39.6404 77.1025 40.1781 66.5657 40.7659C51.6497 41.5975 36.7394 42.4577 21.9191 43.8198C17.2539 44.2499 12.5165 44.5223 7.8805 45.0599C4.97033 45.3968 1.11152 45.8771 0.605105 45.9774C0.340226 46.0348 0.224669 46.1209 0.187329 46.1495C-0.0752157 46.3503 -0.0273109 46.5437 0.120881 46.6943C0.180391 46.7588 0.330875 46.9166 0.748613 46.9381C28.6857 48.4076 57.2529 45.5402 85.2239 45.2391C133.731 44.723 183.707 46.7732 231.829 51.2464C232.249 51.2822 232.657 51.103 232.716 50.8377C232.786 50.5797 232.482 50.3288 232.062 50.2929C183.859 45.8126 133.801 43.7552 85.2005 44.2785C59.1327 44.558 32.5504 47.0743 6.44641 46.214C7.04618 46.1424 7.63432 46.0706 8.17107 46.0061C12.7884 45.4685 17.506 45.2033 22.1525 44.7731C36.9413 43.4111 51.8212 42.5509 66.7174 41.7265C85.2006 40.6942 104.489 39.8053 123.929 39.3895C130.883 39.4541 137.814 39.5186 144.746 39.5975C159.74 39.7695 174.804 40.2713 189.763 40.9452C194.268 41.153 198.772 41.3681 203.276 41.5545C204.769 41.619 208.62 41.8053 209.157 41.791C209.822 41.7767 209.95 41.4326 209.962 41.3753C209.997 41.2462 209.973 41.067 209.647 40.9165C209.612 40.8949 209.402 40.8232 208.935 40.7802C181.735 38.2425 152.692 37.8196 123.952 38.429C93.637 38.1637 63.2051 38.049 32.967 37.9271C32.5341 37.9271 32.1805 38.1422 32.177 38.4075C32.1747 38.6727 32.5235 38.8878 32.9564 38.895C54.8515 38.981 76.8574 39.0669 98.8412 39.2032Z" fill="black"/>
</svg>
